<svg width="250" height="50" viewBox="0 0 250 50" fill="none" xmlns="http://www.w3.org/2000/svg">
<g clip-path="url(#clip0)">
<path d="M115.925 43.1728C125.963 43.1728 134.1 35.1151 134.1 25.1757C134.1 15.2362 125.963 7.17871 115.925 7.17871C105.887 7.17871 97.75 15.2362 97.75 25.1757C97.75 35.1151 105.887 43.1728 115.925 43.1728Z" fill="#4D4A4A"/>
<path d="M116.8 0L120.65 7.93173L116.833 7.30132L116.8 0Z" fill="#4D4A4A"/>
<path d="M114.9 50.0002L114.849 43.0429L112.607 42.7758L111.55 42.5676L110.5 42.3193L114.9 50.0002Z" fill="#4D4A4A"/>
<path d="M141 25.2837L133.7 28.5138L133.997 25.1504L141 25.2837Z" fill="#4D4A4A"/>
<path d="M91 22.8891L98.625 19.6533L98.35 20.582L98.225 21.9123C98.225 21.9123 98.0709 23.2678 97.9855 23.2427C97.9 23.2176 91 22.8891 91 22.8891Z" fill="#4D4A4A"/>
<path d="M116.85 7.17871H114.85V43.1728H116.85V7.17871Z" fill="white"/>
<path d="M134.1 25.1504L134.097 23.1338L97.775 23.2185L97.7 25.1981L134.1 25.1504Z" fill="white"/>
<path d="M115.9 40.3616C124.35 40.3616 131.2 33.5401 131.2 25.1256C131.2 16.711 124.35 9.88965 115.9 9.88965C107.45 9.88965 100.6 16.711 100.6 25.1256C100.6 33.5401 107.45 40.3616 115.9 40.3616Z" fill="white"/>
<path d="M115.85 37.8008C122.864 37.8008 128.55 32.2043 128.55 25.3008C128.55 18.3973 122.864 12.8008 115.85 12.8008C108.836 12.8008 103.15 18.3973 103.15 25.3008C103.15 32.2043 108.836 37.8008 115.85 37.8008Z" fill="#2B8295"/>
<path d="M110.512 20.2158C108.416 22.1374 106.667 23.7502 106.627 23.8033C106.588 23.8531 106.558 23.9261 106.566 23.9693C106.58 24.029 106.938 23.717 108.734 22.0743L110.888 20.1063L110.874 20.332L110.863 20.5576L108.709 22.5323C106.924 24.175 106.558 24.5235 106.558 24.5998C106.558 24.6496 106.569 24.6894 106.584 24.6894C106.598 24.6894 107.569 23.8133 108.738 22.7413L110.867 20.79V21.0057V21.2214L108.712 23.196C106.924 24.8388 106.558 25.1872 106.558 25.2635C106.558 25.3133 106.569 25.3531 106.584 25.3531C106.598 25.3531 107.569 24.477 108.738 23.4051L110.867 21.4537V21.6694V21.8851L108.712 23.8597C106.924 25.5025 106.558 25.8509 106.558 25.9273C106.558 25.977 106.569 26.0168 106.584 26.0168C106.598 26.0168 107.569 25.1407 108.738 24.0688L110.867 22.1174V22.3331V22.5489L108.712 24.5234C106.924 26.1662 106.558 26.5147 106.558 26.591C106.558 26.6408 106.569 26.6806 106.584 26.6806C106.598 26.6806 107.569 25.8044 108.738 24.7325L110.867 22.7812V22.9969V23.2126L108.712 25.1872C106.924 26.8299 106.558 27.1784 106.558 27.2547C106.558 27.3045 106.569 27.3443 106.584 27.3443C106.598 27.3443 107.569 26.4682 108.738 25.3963L110.867 23.4449V23.6606V23.8763L108.712 25.8509C106.924 27.4936 106.558 27.8421 106.558 27.9184C106.558 27.9682 106.569 28.008 106.584 28.008C106.598 28.008 107.569 27.1319 108.738 26.06L110.867 24.1086V24.3243V24.5401L108.712 26.5147C106.924 28.1574 106.558 28.5058 106.558 28.5822C106.558 28.6319 106.569 28.6718 106.584 28.6718C106.598 28.6718 107.569 27.7956 108.738 26.7237L110.867 24.7723V24.9881V25.2038L108.712 27.1784C106.924 28.8211 106.558 29.1695 106.558 29.2459C106.558 29.2957 106.569 29.3355 106.584 29.3355C106.598 29.3355 107.569 28.4594 108.738 27.3874L110.867 25.4361V25.6518V25.8675L108.712 27.8421C106.924 29.4849 106.558 29.8334 106.558 29.9096C106.558 29.9593 106.569 29.9993 106.584 29.9993C106.598 29.9993 107.569 29.1231 108.738 28.0512L110.867 26.0998V26.3155V26.5312L108.712 28.5058C106.924 30.1487 106.558 30.4969 106.558 30.5734C106.558 30.6231 106.569 30.6631 106.584 30.6631C106.598 30.6631 107.308 30.0257 108.158 29.2459L109.708 27.8255V28.0412V28.2536L108.133 29.7005C106.837 30.8919 106.558 31.164 106.558 31.2372C106.558 31.2869 106.569 31.3266 106.584 31.3266C106.598 31.3266 107.308 30.6896 108.158 29.9096L109.708 28.4892V28.705V28.9174L108.133 30.3643C106.837 31.5557 106.558 31.8278 106.558 31.9007C106.558 31.9507 106.569 31.9905 106.584 31.9905C106.598 31.9905 107.308 31.3531 108.158 30.5734L109.708 29.153V29.3687V29.581L108.133 31.0281C106.826 32.2293 106.558 32.4916 106.558 32.5646C106.558 32.6407 106.569 32.6507 106.623 32.6243C106.656 32.6078 107.395 31.9407 108.26 31.1475L109.835 29.7005H110.07H110.305L108.43 31.4196C106.869 32.8534 106.558 33.1519 106.558 33.2284C106.558 33.3046 106.569 33.3146 106.623 33.2881C106.656 33.2713 107.557 32.4552 108.622 31.4793L110.559 29.7005H110.711C110.849 29.7005 110.867 29.7105 110.867 29.7769C110.867 29.8299 110.32 30.351 108.836 31.7084C107.72 32.7305 106.79 33.5934 106.772 33.6231C106.743 33.6731 106.754 33.6828 106.837 33.6828C106.92 33.6828 107.268 33.3775 108.955 31.8346C110.483 30.434 110.975 30.0025 110.975 30.059C110.975 30.0987 110.997 30.1419 111.026 30.1519C111.189 30.2084 111.123 30.2781 109.292 31.9572C108.285 32.8799 107.463 33.6463 107.463 33.6596C107.463 33.6731 107.507 33.6828 107.561 33.6828C107.641 33.6828 107.971 33.3975 109.454 32.0402C110.686 30.9119 111.272 30.3975 111.326 30.3975C111.366 30.3975 111.42 30.4207 111.446 30.4472C111.471 30.4737 111.504 30.4905 111.518 30.4805C111.537 30.4705 111.558 30.4737 111.569 30.4905C111.58 30.5069 110.837 31.204 109.921 32.0434C109.006 32.8799 108.238 33.5934 108.22 33.6266C108.191 33.6731 108.202 33.6828 108.285 33.6828C108.369 33.6828 108.676 33.4175 110.124 32.0899L111.862 30.4969H112.032C112.126 30.4969 112.213 30.5137 112.228 30.5334C112.242 30.5569 111.562 31.204 110.581 32.1031C109.665 32.9463 108.912 33.6463 108.912 33.6596C108.912 33.6731 108.955 33.6828 109.009 33.6828C109.089 33.6828 109.393 33.4207 110.747 32.1828L112.387 30.6796L112.503 30.789L112.622 30.8952L111.127 32.2657C110.309 33.0193 109.636 33.6463 109.636 33.6596C109.636 33.6731 109.679 33.6828 109.734 33.6828C109.813 33.6828 110.059 33.474 111.08 32.5381L112.333 31.3963L112.322 31.6187L112.311 31.841L111.334 32.7372C110.798 33.2316 110.36 33.6463 110.36 33.6596C110.36 33.6731 110.403 33.6828 110.457 33.6828C110.534 33.6828 110.725 33.5269 111.435 32.8799C111.964 32.3955 112.315 32.0999 112.315 32.1331C112.315 32.1663 112.34 32.2393 112.372 32.2957L112.431 32.3987L111.757 33.0157C111.388 33.3578 111.084 33.6463 111.084 33.6596C111.084 33.6731 111.127 33.6828 111.178 33.6828C111.254 33.6828 111.413 33.5602 111.917 33.099L112.561 32.5149L112.67 32.5678C112.731 32.5978 112.811 32.621 112.847 32.621C112.886 32.621 112.702 32.8134 112.358 33.1287C112.054 33.4107 111.808 33.6499 111.808 33.6596C111.808 33.6731 111.851 33.6828 111.902 33.6828C111.978 33.6828 112.126 33.5666 112.583 33.1519L113.169 32.621H113.401H113.633L113.082 33.1287C112.778 33.4107 112.532 33.6499 112.532 33.6596C112.532 33.6731 112.575 33.6828 112.626 33.6828C112.702 33.6828 112.851 33.5666 113.307 33.1519L113.893 32.621H114.125H114.356L113.806 33.1287C113.502 33.4107 113.256 33.6499 113.256 33.6596C113.256 33.6731 113.3 33.6828 113.35 33.6828C113.426 33.6828 113.574 33.5666 114.031 33.1519L114.617 32.621H114.849H115.081L114.53 33.1287C114.226 33.4107 113.98 33.6499 113.98 33.6596C113.98 33.6731 114.023 33.6828 114.074 33.6828C114.15 33.6828 114.299 33.5666 114.755 33.1519L115.341 32.621H115.573H115.805L115.254 33.1287C114.95 33.4107 114.704 33.6499 114.704 33.6596C114.704 33.6731 114.748 33.6828 114.798 33.6828C114.874 33.6828 115.023 33.5666 115.479 33.1519L116.066 32.621H116.297H116.529L115.979 33.1287C115.674 33.4107 115.428 33.6499 115.428 33.6596C115.428 33.6731 115.471 33.6828 115.522 33.6828C115.598 33.6828 115.747 33.5666 116.203 33.1519L116.789 32.621H117.021H117.253L116.703 33.1287C116.399 33.4107 116.153 33.6499 116.153 33.6596C116.153 33.6731 116.196 33.6828 116.246 33.6828C116.322 33.6828 116.471 33.5666 116.927 33.1519L117.514 32.621H117.745H117.977L117.427 33.1287C117.122 33.4107 116.876 33.6499 116.876 33.6596C116.876 33.6731 116.92 33.6828 116.97 33.6828C117.047 33.6828 117.195 33.5666 117.651 33.1519L118.237 32.621H118.47H118.701H118.892C119.593 32.0219 118.75 32.611 118.819 32.621C118.866 32.6275 118.79 32.6575 118.845 32.621C118.903 32.5846 119.545 32.0866 121.503 30.2913C124.479 27.5567 125.058 27.0124 125.058 26.9361C125.058 26.8863 125.048 26.8465 125.033 26.8465C125.019 26.8465 123.715 28.0313 122.136 29.4749L119.266 32.1066V31.8907V31.6752L122.162 29.0202C124.581 26.8 125.058 26.3487 125.058 26.2724C125.058 26.2226 125.048 26.1828 125.033 26.1828C125.019 26.1828 123.715 27.3642 122.136 28.8112C120.558 30.2581 119.262 31.4328 119.255 31.4263C119.248 31.4163 119.208 31.3566 119.168 31.2902L119.092 31.1707L119.461 30.8355C119.784 30.5402 119.841 30.4969 119.965 30.4905C120.04 30.4872 120.12 30.4637 120.142 30.4407C120.164 30.4175 120.203 30.3975 120.236 30.3975C120.305 30.3975 120.606 30.1219 120.606 30.059C120.606 30.029 120.627 29.9925 120.653 29.9728C120.678 29.9528 120.703 29.8799 120.707 29.8102C120.718 29.6905 120.837 29.5746 122.886 27.6927C124.693 26.0368 125.058 25.685 125.058 25.6087C125.058 25.5589 125.048 25.519 125.033 25.519C125.019 25.519 124.041 26.4051 122.861 27.4837L120.714 29.4516V29.236V29.0202L122.886 27.029C124.689 25.373 125.058 25.0213 125.058 24.9449C125.058 24.8952 125.048 24.8553 125.033 24.8553C125.019 24.8553 124.041 25.7414 122.861 26.82L120.714 28.7879V28.5722V28.3565L122.886 26.3653C124.689 24.7093 125.058 24.3575 125.058 24.2812C125.058 24.2314 125.048 24.1916 125.033 24.1916C125.019 24.1916 124.041 25.0777 122.861 26.1562L120.714 28.1242V27.9085V27.6927L122.886 25.7016C124.689 24.0456 125.058 23.6938 125.058 23.6175C125.058 23.5677 125.048 23.5278 125.033 23.5278C125.019 23.5278 124.041 24.414 122.861 25.4925L120.714 27.4605V27.2447V27.029L122.886 25.0378C124.689 23.3818 125.058 23.0301 125.058 22.9537C125.058 22.904 125.048 22.8641 125.033 22.8641C125.019 22.8641 124.041 23.7502 122.861 24.8288L120.714 26.7967V26.581V26.3653L122.886 24.3741C124.689 22.7181 125.058 22.3663 125.058 22.29C125.058 22.2402 125.048 22.2004 125.033 22.2004C125.019 22.2004 124.294 22.8542 123.422 23.6507C122.553 24.4471 121.829 25.0909 121.815 25.0777C121.8 25.0644 121.807 25.0544 121.829 25.0544C121.858 25.0544 121.872 24.9847 121.872 24.8487V24.6429L123.466 23.1794C124.78 21.9714 125.058 21.6993 125.058 21.6263C125.058 21.5765 125.048 21.5367 125.033 21.5367C125.019 21.5367 124.301 22.1838 123.44 22.9703L121.872 24.4073V24.1916V23.9792L123.466 22.5157C124.78 21.3077 125.058 21.0355 125.058 20.9626C125.058 20.9127 125.048 20.8729 125.033 20.8729C125.019 20.8729 124.301 21.52 123.44 22.3066L121.872 23.7436V23.5278V23.3155L123.466 21.8519C124.78 20.6439 125.058 20.3718 125.058 20.2988C125.058 20.249 125.048 20.2092 125.033 20.2092C125.019 20.2092 124.301 20.8563 123.44 21.6429L121.872 23.0798V22.8641V22.6517L123.466 21.1882C124.79 19.9736 125.058 19.7081 125.058 19.6351C125.058 19.5588 125.048 19.5488 124.997 19.5753C124.961 19.592 124.215 20.2656 123.339 21.0688L121.746 22.5323H121.51H121.275L123.169 20.7966C124.747 19.3497 125.058 19.0477 125.058 18.9713C125.058 18.895 125.048 18.8851 124.997 18.9116C124.961 18.9282 124.052 19.7512 122.977 20.7369L121.021 22.5323H120.869C120.732 22.5323 120.714 22.5223 120.714 22.4593C120.714 22.4062 121.311 21.8353 122.886 20.3918C124.689 18.7358 125.058 18.384 125.058 18.3076C125.058 18.2578 125.048 18.218 125.033 18.218C125.019 18.218 124.041 19.1041 122.861 20.1826L120.714 22.1506V21.9349V21.7192L122.886 19.728C124.689 18.072 125.058 17.7202 125.058 17.6439C125.058 17.5941 125.048 17.5543 125.033 17.5543C125.019 17.5543 124.041 18.4404 122.861 19.5189L120.714 21.4869V21.2712V21.0555L122.886 19.0643C124.689 17.4083 125.058 17.0565 125.058 16.9801C125.058 16.9304 125.048 16.8906 125.033 16.8906C125.019 16.8906 124.041 17.7766 122.861 18.8552L120.714 20.8232V20.6074V20.3918L122.654 18.6163C123.719 17.6406 124.609 16.8142 124.628 16.781C124.656 16.7346 124.646 16.7246 124.562 16.7246C124.479 16.7246 124.154 17.0067 122.597 18.4337C121.572 19.3729 120.721 20.1428 120.707 20.1428C120.689 20.1428 120.674 20.1097 120.638 19.9769C120.638 19.967 120.62 19.937 120.606 19.9072C120.58 19.8674 120.946 19.5156 122.22 18.3475C123.125 17.5178 123.886 16.8142 123.904 16.781C123.933 16.7346 123.921 16.7246 123.839 16.7246C123.759 16.7246 123.462 16.9801 122.09 18.2346L120.439 19.7446L120.32 19.6384L120.203 19.5322L121.706 18.1516C122.535 17.395 123.212 16.7611 123.212 16.7478C123.212 16.7346 123.169 16.7246 123.114 16.7246C123.035 16.7246 122.756 16.9636 121.543 18.072L120.07 19.4227L119.957 19.3099L119.845 19.197L121.167 17.9857C121.894 17.3186 122.488 16.7611 122.488 16.7478C122.488 16.7346 122.444 16.7246 122.39 16.7246C122.31 16.7246 122.061 16.937 121.004 17.9028L119.715 19.0808L119.595 18.9746L119.479 18.8718L120.62 17.8198C121.25 17.2457 121.764 16.7611 121.764 16.7478C121.764 16.7346 121.721 16.7246 121.666 16.7246C121.586 16.7246 121.362 16.9138 120.457 17.7434L119.342 18.7623L119.266 18.6727C119.222 18.6229 119.171 18.5897 119.153 18.5996C119.136 18.6129 119.121 18.5996 119.121 18.5764C119.121 18.5532 119.537 18.1516 120.048 17.687C120.554 17.2224 120.989 16.8142 121.007 16.781C121.036 16.7346 121.025 16.7246 120.946 16.7246C120.866 16.7246 120.674 16.8839 119.918 17.5709L118.987 18.4205L118.868 18.3175L118.748 18.2147L119.53 17.4913C119.965 17.0963 120.316 16.7611 120.316 16.7478C120.316 16.7346 120.272 16.7246 120.218 16.7246C120.142 16.7246 119.968 16.8673 119.349 17.4282C118.925 17.8165 118.578 18.1118 118.578 18.0853C118.578 18.0587 118.535 18.0056 118.48 17.9658L118.379 17.8895L118.987 17.3319C119.32 17.0233 119.592 16.7611 119.592 16.7478C119.592 16.7346 119.548 16.7246 119.498 16.7246C119.421 16.7246 119.273 16.8408 118.813 17.2589C118.281 17.7401 118.216 17.7899 118.122 17.7733C118.064 17.7666 117.969 17.7567 117.908 17.7567C117.81 17.7534 117.835 17.7235 118.336 17.2622C118.629 16.9901 118.868 16.7578 118.868 16.7478C118.868 16.7346 118.824 16.7246 118.773 16.7246C118.697 16.7246 118.553 16.8375 118.111 17.239L117.542 17.7534H117.311H117.079L117.611 17.2622C117.904 16.9901 118.143 16.7578 118.143 16.7478C118.143 16.7346 118.1 16.7246 118.049 16.7246C117.973 16.7246 117.829 16.8375 117.387 17.239L116.819 17.7534H116.586H116.355L116.887 17.2622C117.181 16.9901 117.42 16.7578 117.42 16.7478C117.42 16.7346 117.376 16.7246 117.325 16.7246C117.249 16.7246 117.104 16.8375 116.663 17.239L116.094 17.7534H115.863H115.631L116.163 17.2622C116.456 16.9901 116.695 16.7578 116.695 16.7478C116.695 16.7346 116.652 16.7246 116.601 16.7246C116.525 16.7246 116.38 16.8375 115.938 17.239L115.371 17.7534H115.138H114.907L115.439 17.2622C115.732 16.9901 115.971 16.7578 115.971 16.7478C115.971 16.7346 115.928 16.7246 115.877 16.7246C115.801 16.7246 115.656 16.8375 115.215 17.239L114.646 17.7534H114.415H114.183L114.715 17.2622C115.008 16.9901 115.247 16.7578 115.247 16.7478C115.247 16.7346 115.204 16.7246 115.153 16.7246C115.077 16.7246 114.932 16.8375 114.49 17.2357L113.926 17.7468L113.68 17.7601L113.437 17.7733L113.98 17.2722C114.277 16.9968 113.437 17.7833 113.437 17.7733C113.437 17.76 114.48 16.7246 114.425 16.7246C114.342 16.7246 113.708 17.2888 110.512 20.2158ZM119.078 19.2435L120.135 20.1993V25.0213C120.135 30.5302 120.174 29.966 119.784 29.966H119.555V28.7879C119.555 28.0977 119.541 27.5467 119.519 27.4538C119.432 27.0888 119.085 26.8299 118.629 26.7901L118.397 26.7702L118.404 24.1816L118.415 21.5898L118.578 21.4769C118.925 21.2413 119.078 21.1053 119.153 20.9592C119.251 20.7634 119.251 20.5079 119.153 20.3088C119.052 20.1063 117.904 19.0443 117.655 18.9216L117.474 18.832H115.79H114.107L113.926 18.9216C113.676 19.0443 112.528 20.1063 112.427 20.3088C112.38 20.4017 112.351 20.5278 112.351 20.6406C112.351 20.9161 112.481 21.1019 112.858 21.3707L113.166 21.5898L113.176 24.1816L113.184 26.7702L112.948 26.7901C112.575 26.8233 112.322 26.9693 112.152 27.2481L112.043 27.4273L112.032 28.695L112.021 29.966H111.801C111.403 29.966 111.446 30.5502 111.446 25.0345V20.2092L112.506 19.2468L113.564 18.2877H115.79H118.017L119.078 19.2435ZM113.655 19.9935C113.267 20.3486 112.941 20.6406 112.926 20.6406C112.843 20.6406 112.955 20.4913 113.245 20.2225C113.434 20.0532 113.574 19.9105 113.564 19.9105C113.549 19.9105 113.621 19.8508 113.723 19.7778C113.824 19.7048 113.904 19.6251 113.897 19.6019C113.893 19.582 113.908 19.5654 113.933 19.5687C113.958 19.5753 114.005 19.5322 114.038 19.4791C114.078 19.4227 114.139 19.3762 114.194 19.3696C114.244 19.3629 114.303 19.353 114.324 19.3497C114.342 19.3497 114.042 19.6384 113.655 19.9935ZM114.169 20.1826C113.343 20.9393 113.249 21.0156 113.205 20.9626C113.18 20.9327 113.133 20.9061 113.104 20.9061C112.959 20.9061 113.107 20.7335 113.832 20.0665L114.614 19.3464H114.849H115.084L114.169 20.1826ZM114.726 20.3386L113.643 21.3342L113.538 21.2115L113.434 21.092L114.386 20.2191L115.337 19.3464H115.573H115.808L114.726 20.3386ZM115.349 20.4282C114.621 21.0986 114.154 21.5035 114.125 21.4869C114.078 21.4603 113.882 21.5234 113.792 21.5964C113.734 21.6429 113.727 21.6395 113.727 21.5665C113.727 21.5068 114.009 21.228 114.892 20.4183L116.062 19.3464H116.297H116.533L115.349 20.4282ZM116.098 20.4083L114.939 21.4703H114.704H114.469L115.627 20.4083L116.786 19.3464H117.021H117.256L116.098 20.4083ZM117.622 19.5787C117.636 19.5787 117.622 19.5521 117.597 19.5189C117.55 19.4691 117.554 19.4658 117.608 19.5056C117.64 19.5289 117.662 19.572 117.658 19.5986C117.655 19.6251 117.202 20.0599 116.655 20.561L115.664 21.4703H115.428H115.193L116.33 20.4282L117.47 19.3828L117.535 19.4824C117.571 19.5355 117.611 19.5787 117.622 19.5787ZM117.908 19.7977C117.959 19.8275 117.991 19.864 117.981 19.8773C117.969 19.8939 117.981 19.9172 118.003 19.9305C118.028 19.9437 117.72 20.249 117.217 20.7103L116.387 21.4703H116.153H115.917L116.858 20.6074C117.376 20.1329 117.803 19.7446 117.81 19.7446C117.814 19.7446 117.861 19.7678 117.908 19.7977ZM118.288 20.1826L118.393 20.2922L117.753 20.8796L117.112 21.4703H116.876H116.641L117.401 20.7734C117.818 20.3884 118.165 20.0765 118.172 20.0765C118.176 20.0765 118.23 20.1262 118.288 20.1826ZM118.657 20.6373C118.643 20.7303 118.299 21.072 118.22 21.072C118.176 21.072 117.962 21.2745 117.962 21.3143C117.962 21.3276 117.916 21.3873 117.854 21.447C117.753 21.5466 117.742 21.55 117.622 21.5101C117.554 21.4869 117.485 21.4703 117.467 21.4736C117.452 21.4769 117.423 21.4769 117.401 21.4736C117.383 21.4736 117.626 21.2314 117.944 20.9393L118.52 20.4117L118.596 20.4747C118.65 20.5212 118.669 20.5709 118.657 20.6373ZM114.433 22.5986L113.781 23.196L113.77 22.9902L113.759 22.7845L114.187 22.3929L114.614 22.0013H114.849H115.084L114.433 22.5986ZM114.795 22.9305L113.781 23.8597L113.77 23.654L113.759 23.4482L114.549 22.7248L115.337 22.0013H115.573H115.805L114.795 22.9305ZM116.243 22.2668L115.953 22.5323H115.718H115.483L115.772 22.2668L116.062 22.0013H116.297H116.533L116.243 22.2668ZM116.873 22.353L116.489 22.7015L116.337 22.6285L116.181 22.5555L116.482 22.28L116.786 22.0013H117.021H117.256L116.873 22.353ZM117.688 22.2435C117.698 22.2336 117.709 22.2303 117.709 22.2369C117.709 22.2435 117.524 22.4195 117.296 22.6285L116.887 23.0035L116.768 22.8973L116.648 22.7911L117.057 22.4161L117.467 22.0378L117.564 22.1506C117.619 22.2136 117.673 22.2568 117.688 22.2435ZM117.503 23.103L117.184 23.3951L117.122 23.3221C116.985 23.1562 116.992 23.1429 117.405 22.7579L117.8 22.3995L117.81 22.6053L117.821 22.811L117.503 23.103ZM116.206 23.133C116.536 23.2757 116.673 23.5113 116.652 23.9095C116.645 24.1385 116.626 24.2016 116.54 24.3177C116.486 24.394 116.373 24.4969 116.29 24.5467C116.163 24.6263 116.094 24.6429 115.845 24.6496C115.522 24.6628 115.378 24.6263 115.189 24.4803C114.845 24.2148 114.823 23.5478 115.153 23.2657C115.396 23.0566 115.885 22.9936 116.206 23.133ZM117.532 23.7402L117.238 24.009V23.7933V23.5776L117.521 23.3188L117.8 23.0599L117.81 23.269L117.821 23.4748L117.532 23.7402ZM121.007 23.873L120.714 24.1418V23.9261V23.7104L120.996 23.4515L121.275 23.1927L121.286 23.4018L121.297 23.6075L121.007 23.873ZM114.056 24.2713L113.763 24.5401V24.3243V24.1086L114.045 23.8498L114.324 23.5909L114.335 23.8L114.346 24.0058L114.056 24.2713ZM116.96 24.9283L116.098 25.7182H115.863H115.627L115.935 25.4361C116.105 25.2801 116.315 25.1108 116.406 25.0644C116.706 24.9018 116.92 24.7093 117.09 24.4405C117.137 24.3675 117.318 24.175 117.488 24.0157L117.8 23.7237L117.81 23.9328L117.821 24.1385L116.96 24.9283ZM121.087 24.4637C120.956 24.5865 120.848 24.6562 120.797 24.6562C120.725 24.6562 120.714 24.6396 120.714 24.5168C120.714 24.384 120.732 24.3575 120.996 24.1152L121.275 23.8564L121.286 24.0622L121.297 24.2679L121.087 24.4637ZM114.451 24.3642L114.527 24.5002L114.147 24.852L113.763 25.2038V24.9881V24.7723L114.06 24.5002C114.226 24.3475 114.36 24.2248 114.364 24.2248C114.368 24.2248 114.407 24.2878 114.451 24.3642ZM117.321 25.2602L116.822 25.7182H116.586H116.352L117.075 25.0544L117.8 24.3907L117.81 24.5965L117.821 24.8023L117.321 25.2602ZM114.744 24.7591L114.856 24.8653L114.451 25.2337L114.049 25.602L113.94 25.4858L113.835 25.373L114.222 25.0146C114.436 24.8155 114.617 24.6562 114.624 24.6562C114.628 24.6562 114.683 24.7027 114.744 24.7591ZM115.164 25.0578L115.291 25.1308L114.972 25.4228C114.653 25.7182 114.65 25.7182 114.465 25.7182C114.364 25.7182 114.269 25.7082 114.255 25.695C114.23 25.6684 114.954 24.9881 115.008 24.9881C115.026 24.9881 115.095 25.0213 115.164 25.0578ZM121.246 25.6452L120.714 26.133V25.9173V25.7016L120.993 25.446L121.275 25.1872H121.5C121.648 25.1872 121.728 25.1739 121.728 25.1473C121.728 25.1275 121.739 25.1208 121.753 25.1341C121.768 25.1473 121.539 25.3764 121.246 25.6452ZM115.664 25.4527L115.374 25.7182H115.138H114.904L115.193 25.4527L115.483 25.1872H115.718H115.953L115.664 25.4527ZM117.474 26.4483L117.112 26.7801H116.876H116.641L116.931 26.5147C117.206 26.2624 117.231 26.2458 117.387 26.2425C117.474 26.2425 117.604 26.216 117.673 26.1828C117.742 26.1496 117.807 26.123 117.818 26.1197C117.825 26.1164 117.673 26.2658 117.474 26.4483ZM114.505 26.5147L114.216 26.7801H113.98H113.745L114.035 26.5147L114.324 26.2491H114.559H114.795L114.505 26.5147ZM115.229 26.5147L114.939 26.7801H114.704H114.469L114.758 26.5147L115.048 26.2491H115.284H115.519L115.229 26.5147ZM115.953 26.5147L115.664 26.7801H115.428H115.193L115.483 26.5147L115.772 26.2491H116.007H116.243L115.953 26.5147ZM116.677 26.5147L116.387 26.7801H116.153H115.917L116.206 26.5147L116.496 26.2491H116.732H116.967L116.677 26.5147ZM110.66 27.3841L110.454 27.5766H110.215H109.98L110.414 27.1784L110.849 26.7801L110.859 26.9826L110.87 27.1883L110.66 27.3841ZM113.129 27.7757L112.622 28.2403L112.612 28.0346L112.601 27.8288L112.883 27.57L113.166 27.3111H113.401H113.636L113.129 27.7757ZM114.074 27.5733L113.788 27.8355L113.542 27.8488L113.292 27.8587L113.589 27.5833L113.889 27.3111H114.125H114.36L114.074 27.5733ZM114.795 27.5766L114.505 27.8421H114.269H114.035L114.324 27.5766L114.614 27.3111H114.849H115.084L114.795 27.5766ZM115.519 27.5766L115.229 27.8421H114.994H114.758L115.048 27.5766L115.337 27.3111H115.573H115.808L115.519 27.5766ZM116.243 27.5766L115.953 27.8421H115.718H115.483L115.772 27.5766L116.062 27.3111H116.297H116.533L116.243 27.5766ZM116.967 27.5633C116.62 27.8686 116.688 27.8056 116.355 28.1242L116.08 28.3897V28.174V27.9583L116.431 27.6363L116.786 27.3111H117.021H117.256L116.967 27.5633ZM117.655 27.6098C117.343 27.8985 117.329 27.9052 117.268 27.8454C117.235 27.8089 117.169 27.7691 117.126 27.7592C117.054 27.7359 117.068 27.7193 117.278 27.5235L117.506 27.3111H117.745H117.981L117.655 27.6098ZM118.47 27.5268C118.296 27.6862 118.22 27.7359 118.169 27.7227C118.129 27.7127 118.031 27.726 117.944 27.7592C117.81 27.8056 117.778 27.8355 117.723 27.9583C117.691 28.0379 117.676 28.1308 117.688 28.164C117.723 28.247 117.104 28.8112 117.01 28.7846C116.97 28.7746 116.873 28.7879 116.786 28.8211C116.652 28.8676 116.62 28.8975 116.565 29.0202C116.533 29.0998 116.518 29.1928 116.529 29.226C116.547 29.2658 116.46 29.3687 116.181 29.6243L115.808 29.966H115.577H115.341L116.127 29.2426C116.793 28.6319 116.941 28.5125 117.094 28.4627C117.253 28.4096 117.274 28.3897 117.333 28.247C117.38 28.1275 117.495 27.9981 117.814 27.6994L118.234 27.3111H118.47H118.701L118.47 27.5268ZM118.929 27.4173C118.933 27.4406 118.944 27.5202 118.958 27.5932C118.98 27.7227 118.976 27.7326 118.766 27.9184L118.553 28.1109L118.487 27.9583L118.426 27.8023L118.654 27.5899C118.893 27.3709 118.925 27.3477 118.929 27.4173ZM113.191 28.1674L113.176 28.3963L112.89 28.6585L112.604 28.9207V28.705V28.4892L112.901 28.2171C113.068 28.0645 113.202 27.9417 113.202 27.9417C113.202 27.9417 113.198 28.0445 113.191 28.1674ZM118.712 28.6319L118.44 28.8809L118.27 28.8211L118.103 28.7614L118.531 28.3665L118.958 27.9748L118.969 28.1806L118.98 28.3864L118.712 28.6319ZM110.581 28.7846L110.287 29.0534V28.8377V28.622L110.569 28.3631L110.849 28.1043L110.859 28.3133L110.87 28.5191L110.581 28.7846ZM116.685 28.4229C116.72 28.4494 116.663 28.5225 116.406 28.7547L116.08 29.0534V28.8377V28.6253L116.304 28.4162L116.529 28.2072L116.583 28.2968C116.612 28.3498 116.655 28.4062 116.685 28.4229ZM115.501 28.6386V28.9041H114.632H113.763V28.6386V28.3731H114.632H115.501V28.6386ZM117.973 28.466L118.107 28.5225L117.753 28.8477L117.394 29.1729L117.329 29.0202L117.268 28.8642L117.514 28.6353C117.651 28.5092 117.778 28.4062 117.8 28.4096C117.818 28.4096 117.897 28.4362 117.973 28.466ZM112.898 29.3156L112.604 29.5843V29.3687V29.153L112.886 28.8941L113.166 28.6353L113.176 28.8443L113.187 29.0501L112.898 29.3156ZM118.48 29.5081L117.981 29.966H117.745H117.514L117.745 29.7505C117.919 29.591 117.995 29.5413 118.046 29.5546C118.086 29.5646 118.183 29.5513 118.27 29.5181C118.404 29.4716 118.436 29.4416 118.491 29.3189C118.523 29.2392 118.538 29.1463 118.527 29.1165C118.509 29.0733 118.563 29.0003 118.73 28.8477L118.958 28.6353L118.969 28.841L118.98 29.0501L118.48 29.5081ZM117.727 29.3222L117.788 29.4749L117.524 29.7205L117.26 29.966H117.021H116.786L117.221 29.5678C117.459 29.3488 117.655 29.1695 117.658 29.1695C117.662 29.1695 117.691 29.2392 117.727 29.3222ZM113.234 29.3554C113.245 29.382 113.27 29.3952 113.292 29.3853C113.31 29.3753 113.328 29.382 113.328 29.3986C113.328 29.4184 113.365 29.4352 113.408 29.4352C113.477 29.4352 113.437 29.4816 113.202 29.7005C112.93 29.9496 112.905 29.966 112.76 29.966C112.518 29.966 112.546 29.8699 112.883 29.561C113.039 29.4184 113.176 29.3023 113.187 29.3023C113.202 29.3023 113.223 29.3255 113.234 29.3554ZM118.842 29.8399C118.716 29.9593 118.697 29.966 118.473 29.966H118.234L118.596 29.6343L118.958 29.299L118.969 29.5049C118.98 29.704 118.976 29.7137 118.842 29.8399ZM113.926 29.7005L113.636 29.966H113.401H113.166L113.455 29.7005L113.745 29.4352H113.98H114.216L113.926 29.7005ZM114.65 29.7005L114.36 29.966H114.125H113.889L114.179 29.7005L114.469 29.4352H114.704H114.939L114.65 29.7005ZM115.374 29.7005L115.084 29.966H114.849H114.614L114.904 29.7005L115.193 29.4352H115.428H115.664L115.374 29.7005ZM116.797 29.5246L116.953 29.5778L116.742 29.7737L116.536 29.966H116.301H116.066L116.333 29.7172C116.482 29.581 116.612 29.4684 116.62 29.4684C116.63 29.4684 116.71 29.4913 116.797 29.5246ZM118.306 30.7625L118.017 31.0281H115.79H113.564L113.274 30.7625L112.985 30.4969H115.79H118.596L118.306 30.7625ZM113.781 31.8246L113.491 32.0899H113.256H113.02L113.31 31.8246L113.6 31.559H113.835H114.07L113.781 31.8246ZM114.505 31.8246L114.216 32.0899H113.98H113.745L114.035 31.8246L114.324 31.559H114.559H114.795L114.505 31.8246ZM115.229 31.8246L114.939 32.0899H114.704H114.469L114.758 31.8246L115.048 31.559H115.284H115.519L115.229 31.8246ZM115.953 31.8246L115.664 32.0899H115.428H115.193L115.483 31.8246L115.772 31.559H116.007H116.243L115.953 31.8246ZM116.677 31.8246L116.387 32.0899H116.153H115.917L116.206 31.8246L116.496 31.559H116.732H116.967L116.677 31.8246ZM117.401 31.8246L117.112 32.0899H116.876H116.641L116.931 31.8246L117.221 31.559H117.455H117.691L117.401 31.8246ZM118.125 31.8246L117.835 32.0899H117.601H117.365L117.655 31.8246L117.944 31.559H118.18H118.415L118.125 31.8246Z" fill="white"/>
</g>
<path d="M14.9151 40.3949C12.0231 40.3949 9.43974 39.8262 7.1651 38.6887C4.92297 37.5513 3.16824 35.9623 1.90095 33.9215C0.633648 31.8808 0 29.5557 0 26.9461V17.7127C0 15.1032 0.6174 12.7948 1.8522 10.7876C3.1195 8.74682 4.85798 7.17444 7.06762 6.07044C9.27726 4.93299 11.8119 4.36426 14.6714 4.36426C17.531 4.36426 20.0656 4.8159 22.2752 5.71916C24.5173 6.58899 26.2558 7.81008 27.4906 9.38246C28.7253 10.9548 29.3428 12.7614 29.3428 14.8021C29.3428 16.0399 28.9366 17.0101 28.1243 17.7127C27.3444 18.4152 26.2883 18.7665 24.956 18.7665C24.3061 18.7665 23.5912 18.6661 22.8113 18.4654C22.8764 17.6625 22.9088 16.8763 22.9088 16.1068C22.9088 14.3338 22.1452 12.8952 20.618 11.7912C19.0906 10.6872 17.1086 10.1352 14.6714 10.1352C12.2668 10.1352 10.3009 10.8377 8.77359 12.2428C7.27884 13.648 6.53146 15.4712 6.53146 17.7127V26.9461C6.53146 29.1876 7.31133 31.0276 8.87108 32.4662C10.4308 33.9047 12.4455 34.624 14.9151 34.624C17.3197 34.624 19.2695 34.0553 20.7642 32.9178C22.2914 31.7468 23.0551 30.2414 23.0551 28.4014V26.8459H18.8633C17.6284 26.8459 16.6211 26.3608 15.8412 25.3906C15.0613 24.3868 14.6714 23.0989 14.6714 21.5265H26.5158C27.4257 21.5265 28.1567 21.8108 28.7091 22.3797C29.2615 22.9483 29.5377 23.701 29.5377 24.6378V28.5519C29.5377 30.8604 28.9204 32.9178 27.6856 34.7244C26.4507 36.4974 24.7122 37.8859 22.4702 38.8895C20.2605 39.8931 17.7421 40.3949 14.9151 40.3949ZM45.9407 40.3949C43.4712 40.3949 41.2452 39.9098 39.263 38.9396C37.2808 37.9695 35.7211 36.648 34.5837 34.9753C33.479 33.2691 32.9266 31.3621 32.9266 29.2546C32.9266 27.8495 33.4952 26.8625 34.6324 26.2938C35.8023 25.7251 37.427 25.4408 39.5067 25.4408C39.4092 26.0429 39.3605 26.8123 39.3605 27.7491C39.3605 29.9236 39.9129 31.5964 41.0177 32.7672C42.1551 33.9382 43.796 34.5236 45.9407 34.5236C48.0529 34.5236 49.6776 33.9047 50.8147 32.6668C51.9521 31.3957 52.5207 29.5891 52.5207 27.2472V10.637H47.5979C46.0707 10.637 44.9333 10.1686 44.186 9.23191C43.4386 8.26173 43.065 6.78972 43.065 4.8159H55.8839C56.7613 4.8159 57.5086 5.11699 58.1261 5.71916C58.7435 6.2879 59.0522 7.00718 59.0522 7.87699V27.2472C59.0522 29.7564 58.4836 32.0146 57.3462 34.0219C56.2414 35.9957 54.6816 37.5513 52.6669 38.6887C50.6847 39.8262 48.4428 40.3949 45.9407 40.3949ZM64.4708 7.87699C64.4708 7.04063 64.7794 6.32135 65.3967 5.71916C66.0467 5.11699 66.8266 4.8159 67.7364 4.8159H89.4754C89.4754 6.82318 89.1343 8.29518 88.4519 9.23191C87.802 10.1352 86.7297 10.5868 85.2349 10.5868H71.0021V19.3185H83.9675C83.9675 21.3257 83.6264 22.7978 82.9441 23.7346C82.2941 24.6378 81.2218 25.0895 79.7271 25.0895H71.0021V34.1723H86.2584C87.7207 34.1723 88.7768 34.6408 89.4267 35.5774C90.1091 36.4808 90.4503 37.9361 90.4503 39.9432H67.7364C66.8266 39.9432 66.0467 39.6589 65.3967 39.0902C64.7794 38.488 64.4708 37.7521 64.4708 36.8823V7.87699ZM148.704 39.9432C147.794 39.9432 147.014 39.6589 146.364 39.0902C145.747 38.488 145.438 37.7521 145.438 36.8823V7.87699C145.438 7.00718 145.747 6.2879 146.364 5.71916C146.982 5.11699 147.762 4.8159 148.704 4.8159H159.525C162.417 4.8159 164.968 5.38462 167.177 6.52208C169.419 7.65954 171.141 9.26537 172.343 11.3396C173.578 13.3803 174.197 15.7221 174.197 18.365V26.2938C174.197 28.9367 173.578 31.2953 172.343 33.3695C171.109 35.4436 169.37 37.0662 167.128 38.2372C164.919 39.3746 162.384 39.9432 159.525 39.9432H148.704ZM159.037 34.1723C161.864 34.1723 164.009 33.52 165.471 32.2153C166.933 30.877 167.665 28.92 167.665 26.344V18.2647C167.665 15.7555 166.933 13.8487 165.471 12.5439C164.009 11.2392 161.864 10.5868 159.037 10.5868H151.97V34.1723H159.037ZM179.09 7.87699C179.09 7.04063 179.4 6.32135 180.017 5.71916C180.668 5.11699 181.447 4.8159 182.357 4.8159H204.096C204.096 6.82318 203.755 8.29518 203.072 9.23191C202.423 10.1352 201.35 10.5868 199.855 10.5868H185.622V19.3185H198.588C198.588 21.3257 198.247 22.7978 197.564 23.7346C196.915 24.6378 195.842 25.0895 194.348 25.0895H185.622V34.1723H200.879C202.341 34.1723 203.398 34.6408 204.047 35.5774C204.73 36.4808 205.071 37.9361 205.071 39.9432H182.357C181.447 39.9432 180.668 39.6589 180.017 39.0902C179.4 38.488 179.09 37.7521 179.09 36.8823V7.87699ZM220.029 10.637H208.281C208.281 6.75627 209.988 4.8159 213.4 4.8159H238.307C238.307 8.69663 236.586 10.637 233.141 10.637H226.56V35.427C226.56 37.0327 226.008 38.2706 224.903 39.1404C223.798 39.9768 222.174 40.3949 220.029 40.3949V10.637ZM243.468 9.38246C243.468 7.81008 244.038 6.58899 245.175 5.71916C246.311 4.8159 247.921 4.36426 250 4.36426V35.3768C250 36.9825 249.432 38.2204 248.294 39.0902C247.157 39.96 245.549 40.3949 243.468 40.3949V9.38246Z" fill="#2B8295"/>
<defs>
<clipPath id="clip0">
<rect x="91" width="50" height="50" fill="white"/>
</clipPath>
</defs>
</svg>
